<?xml version="1.0" standalone="no"?>
<!DOCTYPE svg PUBLIC "-//W3C//DTD SVG 20010904//EN"
 "http://www.w3.org/TR/2001/REC-SVG-20010904/DTD/svg10.dtd">
<svg version="1.0" xmlns="http://www.w3.org/2000/svg"
 width="1080.000000pt" height="1080.000000pt" viewBox="0 0 1080.000000 1080.000000"
 preserveAspectRatio="xMidYMid meet">

<g transform="translate(0.000000,1080.000000) scale(0.100000,-0.100000)"
fill="#000000" stroke="none">
<path d="M4015 7041 c-126 -17 -312 -80 -403 -138 -242 -154 -414 -392 -479
-665 -27 -111 -24 -355 5 -467 72 -276 252 -518 485 -650 l57 -32 0 -93 0 -93
-40 -6 c-51 -7 -70 -22 -70 -58 0 -37 23 -58 71 -65 l39 -7 0 -73 0 -74 -38 0
c-45 0 -72 -23 -72 -62 0 -34 30 -58 73 -58 l37 0 0 -75 0 -75 -33 0 c-40 0
-77 -31 -77 -65 0 -36 34 -65 74 -65 33 0 33 -1 39 -52 10 -80 44 -138 97
-165 25 -12 61 -23 81 -23 l36 0 6 -81 c6 -87 21 -115 79 -145 37 -19 276 -20
321 0 61 26 78 55 84 145 l6 81 36 0 c20 0 56 11 81 23 53 27 87 85 97 165 6
51 6 52 39 52 40 0 74 29 74 65 0 34 -37 65 -77 65 l-33 0 0 75 0 75 38 0 c45
0 72 23 72 62 0 34 -30 58 -73 58 l-37 0 0 74 0 73 39 7 c48 7 71 28 71 65 0
36 -19 51 -70 58 l-40 6 0 93 0 93 58 32 c232 132 412 374 484 650 18 69 22
112 22 239 0 176 -12 246 -71 392 -80 199 -214 358 -419 496 -58 38 -204 98
-295 121 -97 23 -280 34 -374 22z m270 -136 c282 -51 499 -200 640 -440 59
-102 92 -195 115 -329 44 -259 -67 -581 -265 -769 -107 -102 -273 -198 -382
-222 l-33 -7 0 141 c0 176 -17 223 -105 285 -19 13 -18 16 23 115 71 171 121
295 127 317 9 33 -11 73 -40 80 -58 15 -80 -13 -145 -186 -32 -87 -69 -170
-75 -170 -6 0 -43 83 -75 170 -65 173 -87 201 -145 186 -29 -7 -49 -47 -40
-80 6 -21 45 -119 126 -315 42 -100 43 -105 24 -115 -32 -19 -62 -55 -84 -101
-18 -39 -21 -64 -21 -186 l0 -141 -32 7 c-58 12 -185 72 -255 119 -214 145
-337 336 -389 606 -36 191 5 415 111 595 139 236 360 390 635 441 91 17 191
16 285 -1z m-84 -1464 c23 -18 24 -25 27 -175 l3 -156 -85 0 -86 0 0 140 c0
142 10 190 42 203 29 12 77 6 99 -12z m-288 -437 c154 -40 408 -30 540 21 16
7 17 -7 17 -194 l0 -201 -325 0 -325 0 0 201 c0 187 1 201 18 194 9 -3 43 -13
75 -21z m555 -696 l-3 -183 -320 0 -320 0 -3 183 -2 182 325 0 325 0 -2 -182z"/>
<path d="M4566 6528 c-34 -49 -7 -108 49 -108 24 0 38 6 45 19 15 29 12 77 -6
95 -23 24 -70 20 -88 -6z"/>
<path d="M4695 6340 c-20 -23 -18 -44 19 -145 21 -57 26 -88 26 -172 0 -118
-14 -181 -64 -284 -40 -82 -43 -104 -20 -137 15 -22 58 -30 79 -14 21 14 76
111 96 166 46 133 59 256 38 372 -16 94 -59 213 -79 224 -30 16 -76 12 -95
-10z"/>
<path d="M2576 6401 c-10 -11 -16 -31 -14 -48 4 -36 38 -53 180 -90 120 -31
156 -27 172 19 17 49 -9 71 -132 106 -129 37 -181 40 -206 13z"/>
<path d="M5500 6387 c-85 -26 -107 -37 -119 -59 -12 -21 -13 -31 -3 -52 18
-40 54 -43 172 -12 140 36 174 53 178 89 9 74 -60 84 -228 34z"/>
<path d="M1885 6330 c-48 -12 -151 -24 -260 -30 -200 -11 -232 -17 -251 -46
-11 -16 -10 -27 13 -71 25 -48 26 -57 17 -100 -9 -41 -138 -456 -375 -1208
-33 -104 -66 -210 -74 -235 -142 -465 -163 -507 -311 -621 -32 -25 -66 -58
-74 -73 -13 -26 -13 -29 10 -47 28 -21 60 -23 122 -9 24 5 104 17 178 26 253
30 398 52 419 63 25 14 27 38 6 88 -8 19 -15 43 -15 52 0 10 36 150 80 312 57
210 85 299 99 310 12 10 69 22 152 34 74 10 159 24 189 31 65 15 66 14 75 -70
3 -34 13 -101 20 -151 8 -49 17 -127 21 -171 l7 -81 -32 -19 c-35 -21 -42 -62
-15 -85 21 -18 499 -88 534 -79 19 5 26 14 28 38 3 25 -4 38 -30 63 -18 17
-47 44 -64 60 -18 17 -37 48 -43 72 -6 23 -54 272 -106 552 -115 613 -145 774
-192 1010 -46 236 -46 233 6 290 34 37 42 52 39 78 -3 30 -5 32 -48 34 -25 1
-81 -7 -125 -17z m-99 -852 c46 -355 57 -458 50 -465 -3 -3 -73 -8 -156 -11
-164 -5 -160 -7 -141 54 6 16 42 142 81 279 103 360 121 418 127 412 3 -3 20
-124 39 -269z"/>
<path d="M6072 6338 c-20 -20 -14 -51 18 -101 53 -85 53 -80 41 -814 -6 -373
-11 -812 -11 -976 0 -341 4 -321 -92 -426 -48 -53 -58 -70 -56 -94 5 -51 24
-54 150 -24 115 28 175 37 398 57 136 12 160 23 160 70 0 17 -12 38 -35 60
-53 52 -63 82 -74 240 -14 198 -3 846 14 828 14 -15 62 -183 94 -329 22 -95
22 -95 2 -139 -32 -72 -7 -95 97 -85 163 15 319 39 341 52 30 19 24 55 -19
114 -16 23 -30 48 -30 56 0 8 13 45 29 81 16 37 61 147 101 244 40 98 77 175
81 172 11 -7 11 -610 0 -734 -12 -132 -26 -175 -72 -225 -21 -23 -39 -51 -39
-62 0 -41 18 -47 280 -78 74 -9 167 -21 205 -27 93 -15 123 -14 142 5 30 29
19 64 -39 125 l-55 57 -7 95 c-19 272 -22 433 -17 955 l6 570 45 63 c42 61 44
65 29 90 -15 26 -17 27 -110 26 -144 -2 -440 -34 -466 -50 -41 -26 -27 -68 41
-121 l26 -21 -77 -178 c-211 -498 -243 -569 -250 -571 -5 -2 -18 25 -30 59
-17 52 -114 335 -266 776 l-21 64 47 43 c50 47 62 87 30 103 -23 12 -157 28
-388 47 -216 18 -208 18 -223 3z"/>
<path d="M9370 6341 c-292 -43 -432 -192 -465 -496 -7 -68 15 -260 41 -345 42
-143 154 -295 264 -358 172 -99 355 -239 398 -305 l27 -42 0 -210 c0 -172 -3
-223 -19 -285 -10 -41 -25 -82 -33 -91 -28 -32 -255 -95 -318 -87 l-30 3 -3
145 c-2 80 2 214 7 297 10 157 18 187 71 268 23 37 17 73 -15 81 -19 5 -102
-11 -330 -61 -33 -8 -83 -19 -112 -25 -57 -12 -103 -42 -103 -67 0 -8 9 -28
20 -43 50 -71 52 -87 40 -304 -13 -221 -9 -260 36 -328 31 -48 120 -114 198
-145 78 -32 248 -63 345 -63 80 0 204 20 277 45 165 56 376 206 408 290 16 43
46 336 46 455 0 253 -58 335 -347 489 -271 144 -347 222 -393 401 -37 146 -20
418 32 513 43 78 127 109 180 67 37 -29 66 -105 79 -211 15 -125 6 -181 -37
-245 -39 -56 -38 -76 6 -99 45 -23 463 -126 488 -120 12 3 28 17 34 31 10 20
8 29 -9 52 -44 60 -47 75 -59 267 -12 215 -22 251 -94 329 -68 74 -202 149
-325 182 -63 17 -232 25 -305 15z"/>
<path d="M2532 6004 c-32 -22 -28 -83 8 -102 35 -18 290 -13 313 7 25 20 22
76 -5 95 -33 23 -284 23 -316 0z"/>
<path d="M5442 6004 c-27 -19 -30 -75 -5 -95 23 -20 278 -25 313 -7 36 19 40
80 8 102 -32 23 -283 23 -316 0z"/>
<path d="M2714 5641 c-123 -33 -154 -51 -154 -90 0 -56 61 -78 144 -51 17 5
68 22 114 36 102 32 128 68 82 114 -26 26 -60 24 -186 -9z"/>
<path d="M5390 5650 c-46 -46 -20 -82 82 -114 46 -14 97 -31 114 -36 83 -27
144 -5 144 51 0 39 -31 57 -158 90 -129 34 -156 35 -182 9z"/>
<path d="M2774 4487 c-65 -44 -96 -105 -101 -201 -5 -90 17 -131 100 -190 52
-37 65 -41 116 -41 47 0 72 7 127 35 88 45 114 82 114 159 -1 72 -25 124 -86
184 -97 94 -185 112 -270 54z"/>
<path d="M5354 4487 c-65 -44 -96 -105 -101 -201 -5 -90 17 -131 100 -190 52
-37 65 -41 116 -41 47 0 72 7 127 35 88 45 114 82 114 159 -1 72 -25 124 -86
184 -97 94 -185 112 -270 54z"/>
<path d="M8137 4489 c-55 -36 -80 -75 -97 -147 -26 -112 4 -185 100 -250 76
-51 137 -51 235 -2 89 45 115 81 115 159 0 71 -26 127 -83 185 -93 92 -185
111 -270 55z"/>
</g>
</svg>
