<?xml version="1.0" standalone="no"?>
<!DOCTYPE svg PUBLIC "-//W3C//DTD SVG 20010904//EN"
 "http://www.w3.org/TR/2001/REC-SVG-20010904/DTD/svg10.dtd">
<svg version="1.0" xmlns="http://www.w3.org/2000/svg"
 width="4320.000000pt" height="4320.000000pt" viewBox="0 0 4320.000000 4320.000000"
 preserveAspectRatio="xMidYMid meet">

<g transform="translate(0.000000,4320.000000) scale(0.100000,-0.100000)"
fill="#000000" stroke="none">
<path d="M16290 28191 c0 -14 -43 -21 -201 -30 -141 -8 -208 -20 -366 -62 -40
-10 -86 -19 -103 -19 -16 0 -56 -8 -87 -19 -76 -24 -169 -49 -215 -56 -20 -3
-70 -21 -112 -40 -41 -19 -82 -35 -92 -35 -20 0 -133 -49 -155 -67 -8 -7 -22
-13 -29 -13 -8 0 -43 -17 -79 -39 -36 -21 -77 -42 -91 -46 -22 -6 -168 -77
-269 -130 -21 -11 -53 -32 -72 -46 -19 -14 -50 -33 -69 -43 -19 -9 -69 -44
-110 -77 -41 -33 -106 -81 -145 -106 -149 -97 -146 -94 -272 -224 -29 -30 -77
-74 -108 -99 -86 -70 -235 -226 -235 -248 0 -4 -38 -46 -85 -95 -56 -57 -119
-139 -184 -240 -55 -83 -115 -172 -133 -197 -18 -25 -38 -57 -45 -72 -6 -15
-29 -53 -51 -85 -65 -96 -97 -155 -121 -223 -13 -36 -29 -74 -36 -85 -6 -11
-18 -38 -25 -60 -7 -22 -27 -67 -45 -100 -17 -33 -34 -77 -38 -97 -3 -20 -21
-69 -40 -109 -19 -41 -45 -108 -57 -149 -12 -41 -31 -100 -41 -130 -10 -30
-22 -80 -25 -110 -4 -30 -11 -65 -15 -78 -69 -186 -121 -1030 -78 -1272 6 -30
14 -118 19 -195 7 -128 15 -170 55 -320 7 -27 16 -80 20 -117 4 -40 20 -99 39
-147 19 -43 37 -100 41 -126 6 -45 21 -82 66 -167 10 -20 19 -45 19 -55 0 -10
8 -31 18 -48 10 -16 29 -59 41 -95 61 -171 194 -424 292 -558 18 -23 39 -56
48 -72 77 -142 135 -221 325 -441 186 -216 379 -397 640 -599 54 -41 118 -91
143 -111 25 -20 66 -47 91 -59 53 -26 202 -113 369 -215 18 -11 37 -33 43 -49
14 -40 13 -636 -1 -673 -15 -39 -24 -43 -113 -43 -107 0 -220 -31 -264 -73
-48 -46 -82 -121 -82 -181 0 -67 30 -126 92 -180 43 -38 60 -45 133 -60 46 -9
112 -16 148 -16 100 0 97 10 97 -291 0 -312 5 -299 -113 -299 -183 0 -251 -29
-314 -134 -30 -48 -38 -73 -41 -121 -3 -56 -1 -64 36 -120 47 -73 61 -85 132
-115 42 -18 80 -24 162 -28 80 -3 111 -8 120 -20 14 -16 25 -437 13 -499 -10
-57 -25 -63 -141 -63 -87 0 -111 -4 -142 -20 -111 -61 -172 -138 -180 -227 -4
-43 1 -63 22 -107 37 -75 59 -100 114 -131 71 -40 128 -55 219 -55 111 0 113
-4 113 -171 0 -120 2 -134 40 -255 77 -247 156 -334 418 -459 l93 -45 147 -6
c81 -4 153 -11 160 -17 9 -7 12 -64 12 -221 0 -373 36 -474 217 -611 58 -44
99 -67 134 -75 28 -7 53 -19 56 -26 4 -12 97 -14 559 -14 525 0 555 1 572 18
11 11 37 22 59 25 57 9 206 126 258 201 30 44 44 79 62 159 20 89 23 129 23
318 0 161 3 219 13 226 6 6 78 13 159 17 l147 6 93 45 c262 125 341 212 418
459 38 121 40 135 40 255 0 167 2 171 113 171 91 0 148 15 219 55 55 31 77 56
114 131 60 122 1 246 -158 334 -31 16 -55 20 -142 20 -116 0 -131 6 -141 63
-12 62 -1 483 13 499 9 12 40 17 120 20 82 4 120 10 162 28 71 30 85 42 132
115 37 56 39 64 36 120 -3 48 -11 73 -41 121 -63 105 -131 134 -314 134 -118
0 -113 -14 -113 301 0 300 -4 289 99 289 34 0 100 7 146 16 73 15 90 22 133
60 62 54 92 113 92 180 0 60 -34 135 -82 181 -44 42 -157 73 -264 73 -89 0
-98 4 -113 43 -14 37 -15 633 -1 673 6 16 25 38 43 49 167 102 316 189 369
215 25 12 67 39 92 59 25 20 87 69 138 109 215 168 260 207 404 349 83 81 181
184 218 228 38 44 84 99 104 123 21 24 53 62 73 85 20 23 54 69 76 102 37 55
54 83 92 154 8 14 49 78 92 141 79 118 206 369 253 499 14 40 33 83 41 94 8
12 15 30 15 40 0 10 18 54 39 98 22 44 42 99 46 122 4 23 22 80 40 127 18 47
37 114 40 150 4 36 21 117 37 180 21 82 32 155 38 255 5 77 13 165 19 195 27
153 21 460 -19 923 -9 116 -40 300 -58 348 -5 13 -12 49 -16 79 -4 30 -15 80
-25 110 -10 30 -29 89 -41 130 -12 41 -38 108 -57 149 -19 40 -37 89 -40 109
-4 20 -21 64 -38 97 -18 33 -38 78 -45 100 -7 22 -19 49 -25 60 -7 11 -23 49
-36 85 -24 67 -55 124 -119 220 -21 30 -45 70 -54 88 -10 19 -32 53 -49 76
-18 24 -41 58 -52 77 -86 143 -182 273 -265 360 -49 52 -90 99 -90 104 0 6
-16 25 -35 44 -19 18 -35 37 -35 42 0 11 -73 81 -155 149 -48 40 -137 124
-181 172 -45 48 -73 69 -204 153 -66 42 -145 102 -188 143 -8 7 -33 22 -56 34
-22 11 -54 31 -71 44 -54 40 -294 165 -345 179 -14 4 -55 25 -91 46 -36 21
-71 39 -79 39 -7 0 -21 6 -29 13 -22 18 -135 67 -155 67 -10 0 -51 16 -93 35
-42 19 -101 39 -132 44 -31 6 -87 20 -126 31 -38 12 -95 26 -125 32 -30 5 -86
18 -125 29 -38 10 -82 19 -96 19 -15 0 -46 7 -70 15 -26 10 -109 20 -202 25
-167 11 -207 16 -207 31 0 5 -127 9 -290 9 -170 0 -290 -4 -290 -9z m446 -521
c99 -6 228 -19 289 -30 60 -11 140 -20 177 -20 53 0 99 -10 208 -45 77 -25
153 -45 168 -45 15 0 61 -16 101 -35 41 -20 94 -40 118 -45 24 -6 77 -26 118
-45 40 -19 79 -35 87 -35 7 0 42 -14 76 -30 35 -17 70 -30 78 -30 13 0 52 -19
143 -70 15 -9 50 -32 78 -53 28 -20 55 -37 60 -37 6 0 30 -15 54 -32 42 -31
111 -77 173 -115 15 -10 46 -33 68 -50 22 -18 43 -33 48 -33 13 0 83 -59 180
-153 52 -51 121 -112 152 -137 32 -25 97 -94 146 -155 49 -60 126 -151 170
-202 45 -51 82 -96 82 -99 0 -4 18 -31 40 -60 22 -30 45 -64 50 -76 6 -13 39
-70 75 -128 35 -58 65 -110 65 -115 0 -6 11 -26 24 -45 12 -19 46 -79 75 -133
50 -94 63 -127 136 -337 18 -52 40 -112 49 -132 9 -21 16 -53 16 -71 0 -34 40
-169 62 -210 6 -12 17 -69 23 -127 7 -58 25 -168 39 -245 42 -223 51 -631 17
-795 -21 -103 -43 -235 -56 -335 -7 -55 -20 -116 -28 -135 -22 -49 -45 -128
-53 -181 -4 -24 -19 -75 -35 -114 -15 -38 -35 -100 -43 -138 -9 -37 -22 -77
-30 -90 -8 -12 -20 -42 -26 -67 -7 -24 -29 -73 -51 -109 -21 -36 -39 -70 -39
-75 0 -6 -29 -58 -65 -116 -35 -58 -89 -152 -121 -210 -63 -117 -95 -163 -173
-253 -29 -34 -88 -107 -131 -162 -43 -55 -115 -136 -160 -180 -45 -44 -117
-114 -159 -156 -76 -75 -135 -122 -266 -212 -38 -27 -99 -72 -135 -102 -57
-47 -150 -103 -285 -169 -22 -10 -47 -25 -55 -31 -8 -7 -44 -25 -80 -40 -36
-16 -72 -34 -80 -41 -8 -7 -46 -24 -85 -39 -38 -14 -81 -33 -94 -42 -60 -39
-378 -135 -436 -131 l-40 3 -5 540 -6 540 -26 70 c-14 39 -33 88 -41 111 -39
102 -161 281 -230 336 -23 19 -71 52 -107 73 -78 46 -82 51 -74 90 9 43 91
252 121 305 13 25 38 81 54 124 16 44 35 89 42 100 7 12 26 57 42 101 15 44
31 85 36 90 4 6 13 33 19 60 15 62 108 286 200 480 20 44 41 91 45 105 4 14
22 63 40 110 18 47 42 122 52 167 19 80 19 82 1 155 -25 97 -75 150 -163 173
-76 19 -110 19 -174 -2 -61 -19 -120 -75 -152 -143 -12 -25 -39 -81 -60 -125
-58 -120 -106 -236 -114 -273 -4 -18 -22 -68 -41 -111 -19 -44 -34 -85 -34
-92 0 -7 -9 -31 -19 -53 -21 -44 -46 -109 -63 -166 -5 -19 -16 -42 -23 -50
-15 -18 -65 -125 -65 -139 0 -6 -13 -36 -29 -68 -16 -32 -35 -77 -43 -101 -7
-24 -23 -55 -35 -70 l-23 -27 -22 27 c-13 15 -29 46 -36 70 -8 24 -27 69 -43
101 -16 32 -29 62 -29 68 0 14 -50 121 -65 139 -7 8 -18 31 -23 50 -17 57 -42
122 -63 166 -10 22 -19 46 -19 53 0 7 -14 44 -31 84 -17 40 -37 92 -44 117
-15 54 -61 164 -117 280 -22 47 -49 103 -59 125 -30 63 -91 119 -150 138 -64
21 -98 21 -174 2 -88 -23 -136 -73 -163 -171 l-21 -76 26 -96 c13 -53 35 -121
48 -152 12 -30 28 -73 35 -95 7 -22 31 -78 52 -125 93 -198 106 -226 113 -250
4 -14 23 -58 41 -98 18 -40 36 -89 40 -108 4 -20 22 -73 40 -117 19 -45 34
-86 34 -92 0 -6 10 -28 21 -50 12 -22 32 -69 46 -105 13 -36 39 -96 58 -135
48 -96 90 -199 110 -268 20 -71 21 -70 -91 -138 -47 -28 -103 -72 -129 -102
-55 -62 -153 -217 -172 -270 -7 -21 -20 -48 -27 -60 -8 -12 -22 -49 -32 -82
-15 -53 -18 -127 -23 -600 l-6 -540 -30 -3 c-16 -2 -55 1 -85 8 -78 17 -319
98 -355 120 -16 9 -61 30 -100 45 -38 15 -77 33 -85 39 -8 7 -44 25 -80 41
-36 15 -72 34 -81 41 -8 8 -19 14 -24 14 -4 0 -39 18 -76 39 -37 22 -78 42
-91 46 -29 9 -141 87 -188 130 -19 18 -73 59 -120 90 -134 91 -150 104 -236
190 -45 44 -123 121 -173 170 -51 50 -123 131 -160 180 -38 50 -93 118 -122
152 -86 99 -122 152 -173 253 -27 52 -54 102 -61 110 -21 26 -116 191 -132
227 -8 20 -26 53 -40 75 -13 23 -33 64 -43 92 -10 28 -27 76 -38 106 -11 30
-25 78 -31 105 -7 28 -23 73 -37 102 -13 28 -24 62 -24 75 0 27 -42 178 -63
228 -8 19 -18 71 -21 115 -4 44 -13 105 -21 135 -42 169 -58 323 -57 536 2
227 9 317 43 489 12 61 27 157 34 215 6 58 17 115 23 127 22 41 62 176 62 210
0 18 7 50 16 71 9 20 34 89 56 152 75 218 81 234 115 290 18 30 33 58 33 63 0
4 18 36 40 71 22 35 40 67 40 72 0 5 30 56 65 114 36 58 69 115 75 128 5 12
27 46 47 75 21 28 43 59 48 69 6 9 51 63 100 120 50 56 123 144 163 193 39 50
97 110 129 135 31 25 100 86 153 137 97 94 167 153 181 153 4 0 22 12 40 28
18 15 47 36 65 47 18 11 77 50 132 88 54 37 102 67 107 67 4 0 30 17 58 37 28
21 63 44 78 53 91 51 130 70 143 70 8 0 43 13 78 30 34 16 69 30 76 30 8 0 47
16 87 35 41 19 94 39 118 45 24 5 77 25 118 45 40 19 86 35 101 35 15 0 91 20
168 45 109 35 155 45 208 45 37 0 117 9 177 20 61 11 175 24 255 28 80 5 150
10 156 11 7 0 92 -4 190 -9z m-11 -5857 c77 -33 132 -94 163 -182 22 -64 22
-70 22 -618 l0 -553 -26 -10 c-14 -6 -147 -10 -304 -10 -157 0 -290 4 -304 10
l-26 10 0 554 c0 537 1 557 21 611 70 189 261 268 454 188z m-1265 -1752 c46
-20 192 -55 266 -65 22 -3 54 -13 71 -21 17 -8 80 -20 139 -25 60 -6 140 -15
177 -20 138 -21 462 -30 667 -20 109 5 230 14 267 20 37 5 117 14 177 20 59 5
122 17 139 25 17 8 49 18 71 21 74 10 220 45 266 65 25 10 71 25 103 33 50 12
59 12 72 -1 13 -12 15 -118 15 -787 0 -707 -1 -775 -17 -787 -13 -12 -225 -14
-1293 -14 -1068 0 -1280 2 -1293 14 -16 12 -17 80 -17 787 0 669 2 775 15 787
13 13 22 13 72 1 32 -8 78 -23 103 -33z m2420 -2111 c7 -13 10 -237 8 -709
l-3 -690 -33 -34 c-28 -29 -45 -36 -102 -46 -97 -16 -2243 -16 -2340 0 -57 10
-74 17 -102 46 l-33 34 -3 690 c-2 472 1 696 8 709 11 20 24 20 1300 20 1276
0 1289 0 1300 -20z"/>
<path d="M18411 26208 c-86 -15 -142 -61 -190 -155 -31 -63 -30 -174 4 -241
30 -60 102 -127 146 -136 40 -8 118 -8 158 0 48 10 126 85 145 141 18 52 21
170 6 224 -31 111 -154 188 -269 167z"/>
<path d="M18923 25450 c-40 -6 -63 -17 -102 -50 -28 -24 -60 -59 -72 -78 -42
-73 -35 -184 21 -297 50 -104 108 -248 115 -290 4 -22 18 -85 32 -140 42 -167
45 -199 44 -540 0 -336 -3 -369 -40 -510 -11 -44 -27 -114 -35 -155 -7 -41
-30 -113 -51 -160 -53 -121 -183 -381 -219 -435 -20 -30 -66 -181 -66 -213 1
-54 45 -156 87 -199 47 -48 91 -63 183 -63 114 1 179 49 245 182 15 32 36 65
47 74 10 10 18 21 18 26 0 4 16 32 37 60 20 29 47 79 60 113 13 33 32 78 42
100 37 80 83 201 93 245 18 84 50 195 59 206 9 12 59 269 59 307 0 13 9 57 20
98 17 64 20 107 20 326 0 198 -3 262 -15 296 -8 24 -19 87 -25 139 -5 53 -14
106 -18 119 -5 13 -12 47 -16 74 -4 28 -15 75 -26 105 -26 77 -47 149 -55 190
-4 19 -13 44 -19 55 -13 20 -56 150 -56 169 -1 13 -49 111 -73 147 -9 14 -41
42 -70 61 -58 40 -128 51 -224 38z"/>
<path d="M10405 25685 c-40 -11 -61 -26 -106 -74 -33 -36 -59 -74 -63 -92 -10
-54 -7 -120 9 -153 27 -56 96 -120 150 -139 28 -10 68 -26 90 -36 35 -15 86
-30 240 -70 22 -5 74 -22 115 -36 41 -14 104 -30 141 -35 36 -5 85 -18 110
-29 25 -11 83 -27 130 -36 227 -41 210 -39 270 -22 104 31 189 139 189 240 0
64 -29 122 -89 180 -37 36 -64 51 -141 76 -52 17 -106 38 -120 45 -14 7 -50
16 -80 20 -30 4 -99 22 -155 41 -55 18 -122 36 -150 40 -27 3 -99 21 -160 40
-101 31 -246 56 -306 54 -13 0 -46 -7 -74 -14z"/>
<path d="M22555 25688 c-38 -5 -119 -24 -180 -43 -60 -18 -132 -37 -160 -40
-27 -4 -95 -22 -150 -40 -56 -19 -125 -37 -155 -41 -30 -4 -66 -13 -80 -20
-14 -7 -68 -28 -120 -45 -77 -25 -104 -40 -141 -76 -60 -58 -89 -116 -89 -180
0 -101 85 -209 189 -240 60 -17 43 -19 270 22 47 9 105 25 130 36 25 11 74 24
110 29 37 5 100 21 141 35 41 14 93 31 115 36 154 40 205 55 240 70 22 10 62
26 89 35 54 19 87 47 135 114 25 35 31 53 31 95 0 88 -9 112 -69 176 -47 50
-65 62 -111 74 -60 16 -90 17 -195 3z"/>
<path d="M7935 25439 c-66 -9 -176 -31 -245 -48 -406 -98 -681 -135 -1170
-156 -477 -21 -804 -43 -875 -61 -116 -29 -177 -83 -191 -171 -9 -61 18 -131
89 -226 83 -112 100 -159 100 -272 0 -76 -6 -106 -36 -195 -19 -58 -511 -1626
-1092 -3485 -581 -1859 -1074 -3436 -1097 -3505 -61 -188 -132 -361 -204 -500
-158 -302 -299 -461 -587 -658 -243 -167 -317 -244 -390 -404 l-25 -57 81 -54
c45 -30 105 -63 132 -72 73 -26 188 -22 308 9 63 17 257 46 533 81 888 112
1741 225 1808 240 117 26 185 77 206 156 15 55 -8 151 -68 284 -27 61 -52 119
-56 131 -11 37 28 195 314 1245 155 569 291 1070 302 1113 31 125 62 173 136
210 19 10 123 28 262 46 493 64 992 146 1293 214 12 3 21 -4 27 -20 5 -13 55
-358 110 -766 56 -409 108 -781 116 -827 16 -98 18 -211 4 -263 -15 -53 -52
-93 -131 -138 -37 -22 -81 -57 -96 -77 -25 -32 -28 -45 -28 -107 0 -94 31
-150 104 -190 47 -25 105 -35 788 -131 406 -57 846 -120 978 -140 256 -39 312
-40 390 -6 100 45 134 159 79 269 -29 59 -144 167 -301 283 -140 104 -204 196
-257 369 -14 47 -240 1230 -501 2630 -262 1400 -541 2876 -620 3280 -238 1217
-237 1209 -229 1265 3 28 13 63 22 80 8 16 76 90 152 165 76 76 145 153 156
175 14 30 20 67 22 152 4 129 19 112 -118 136 -65 11 -91 11 -195 -4z m-755
-3795 c104 -819 191 -1502 193 -1517 2 -15 1 -30 -3 -32 -4 -2 -78 -14 -166
-26 -136 -18 -225 -22 -628 -26 l-469 -6 7 38 c9 44 73 273 532 1876 186 653
340 1186 342 1184 1 -1 88 -672 192 -1491z"/>
<path d="M24340 25428 c-26 -14 -57 -41 -75 -66 -26 -38 -30 -52 -30 -110 0
-87 35 -162 134 -292 40 -52 83 -115 96 -140 37 -73 65 -180 73 -280 4 -50 -2
-973 -14 -2049 -13 -1076 -30 -2829 -38 -3896 -11 -1308 -20 -1958 -27 -1995
-6 -30 -22 -75 -34 -100 -13 -25 -132 -166 -264 -315 -261 -292 -293 -338
-295 -428 0 -43 5 -60 32 -99 41 -59 77 -85 141 -100 45 -10 58 -9 133 15 85
28 507 129 723 173 182 37 292 51 630 79 171 15 472 42 670 60 339 33 363 36
414 62 75 38 123 105 129 179 7 87 -17 134 -124 244 -171 175 -245 284 -279
410 -8 30 -22 159 -30 285 -8 127 -22 322 -30 435 -27 362 -34 657 -25 933 5
144 16 728 25 1297 9 569 19 1054 23 1078 7 41 10 33 76 -180 219 -703 406
-1461 406 -1641 0 -77 -12 -112 -64 -184 -66 -92 -81 -173 -47 -249 24 -52 60
-80 130 -100 48 -15 73 -15 206 -5 250 20 619 59 815 86 102 14 271 36 377 50
197 26 244 39 301 82 48 36 65 76 60 144 -6 79 -55 175 -172 333 -133 179
-134 191 -36 411 34 77 155 370 270 650 114 281 274 675 356 876 l149 367 7
-102 c9 -133 27 -708 38 -1176 9 -391 -2 -1115 -20 -1388 -19 -280 -60 -704
-80 -817 -22 -127 -33 -159 -86 -270 -39 -81 -74 -121 -212 -246 -69 -63 -101
-122 -102 -187 0 -122 84 -187 280 -216 168 -25 1107 -142 1445 -180 171 -20
362 -47 425 -62 193 -44 315 -26 385 58 68 81 82 167 40 256 -18 40 -67 95
-200 228 -96 96 -186 194 -199 217 -21 36 -26 64 -36 192 -6 83 -24 314 -40
515 -50 615 -61 794 -67 1095 -5 250 29 3950 41 4475 3 136 8 197 20 229 16
44 162 259 242 357 53 65 67 109 62 189 -7 111 -80 183 -203 199 -48 6 -701
-49 -1650 -140 -461 -44 -490 -53 -566 -157 -24 -33 -29 -50 -29 -95 0 -107
37 -153 256 -317 100 -75 115 -90 110 -110 -3 -12 -274 -652 -602 -1421 -734
-1724 -696 -1635 -700 -1631 -8 8 -405 1161 -599 1737 -226 674 -331 980 -524
1528 -72 205 -131 385 -131 400 0 29 21 53 72 85 15 10 82 63 149 118 152 126
176 172 152 290 -9 46 -78 113 -139 132 -27 9 -125 23 -219 32 -93 8 -255 24
-360 35 -280 30 -1611 150 -1659 150 -23 0 -61 -10 -86 -22z"/>
<path d="M37625 25435 c-352 -43 -723 -144 -970 -264 -444 -217 -743 -569
-909 -1071 -95 -289 -128 -511 -128 -880 0 -851 194 -1521 591 -2045 91 -121
294 -326 411 -416 104 -81 237 -169 350 -234 79 -45 186 -113 478 -302 201
-130 511 -358 661 -486 93 -79 244 -234 288 -295 103 -145 155 -289 174 -482
16 -157 5 -940 -16 -1150 -28 -285 -79 -548 -150 -775 -57 -179 -58 -181 -210
-243 -388 -158 -752 -252 -1046 -268 -194 -11 -207 -4 -228 133 -14 91 -14
664 -1 970 14 303 48 896 61 1058 23 288 91 475 226 627 70 78 113 155 113
202 0 77 -61 175 -127 202 -43 18 -114 18 -177 -1 -28 -9 -342 -78 -697 -155
-1163 -251 -1179 -256 -1254 -321 -46 -41 -65 -83 -65 -147 0 -61 31 -123 110
-222 143 -177 183 -353 155 -689 -37 -442 -63 -1230 -46 -1373 24 -198 98
-362 235 -522 108 -126 367 -318 567 -419 266 -135 786 -260 1238 -298 177
-15 590 -6 746 16 718 100 1339 383 1953 893 234 194 299 272 342 410 37 117
122 727 155 1102 35 407 45 880 25 1136 -23 280 -92 485 -236 700 -204 306
-468 498 -1229 899 -566 298 -741 404 -912 554 -348 305 -564 722 -637 1231
-48 331 -47 664 5 1120 57 510 136 722 344 919 137 130 300 176 440 125 50
-18 129 -81 173 -137 62 -79 90 -129 140 -247 97 -231 136 -490 136 -925 1
-223 -2 -269 -17 -325 -27 -94 -71 -171 -149 -258 -89 -99 -122 -160 -121
-229 0 -63 28 -112 87 -152 60 -42 101 -57 286 -107 373 -102 1589 -407 1641
-411 103 -10 185 34 225 121 44 95 26 164 -76 285 -82 97 -114 148 -140 227
-44 132 -50 209 -60 714 -11 567 -20 700 -54 832 -95 364 -324 636 -771 917
-393 247 -832 405 -1265 455 -164 19 -508 19 -665 1z"/>
<path d="M10255 24073 c-16 -2 -55 -16 -85 -31 -65 -32 -113 -90 -135 -164
-13 -45 -13 -57 0 -109 9 -32 25 -73 37 -91 68 -103 101 -108 676 -108 547 0
612 7 674 67 48 47 62 88 62 188 0 91 -16 134 -67 182 -67 64 -88 66 -637 68
-272 2 -508 0 -525 -2z"/>
<path d="M21920 24074 c-99 -17 -152 -38 -186 -76 -48 -53 -57 -80 -57 -173
-1 -99 13 -141 61 -188 62 -60 127 -67 674 -67 575 0 608 5 676 108 12 18 28
59 37 91 13 52 13 64 0 109 -23 76 -70 132 -140 167 l-60 30 -490 1 c-269 1
-501 0 -515 -2z"/>
<path d="M11220 22651 c-58 -14 -110 -29 -115 -33 -6 -3 -63 -16 -127 -27 -65
-12 -141 -30 -171 -41 -29 -11 -95 -29 -147 -40 -90 -19 -171 -47 -273 -92
-45 -21 -118 -93 -145 -145 -17 -31 -15 -133 3 -167 55 -105 116 -151 215
-163 62 -7 235 21 340 56 47 16 128 39 180 51 52 12 111 30 130 40 19 9 80 27
135 40 55 12 120 30 145 40 25 10 70 26 101 34 107 30 189 132 189 236 0 59
-16 98 -62 154 -74 90 -201 108 -398 57z"/>
<path d="M21624 22656 c-86 -40 -144 -127 -144 -216 0 -104 82 -206 189 -236
31 -8 76 -24 101 -34 25 -10 90 -28 145 -40 55 -13 116 -31 135 -40 19 -10 78
-28 130 -40 52 -12 133 -35 180 -51 105 -35 278 -63 340 -56 99 12 160 58 215
163 18 34 20 136 3 167 -27 52 -100 124 -145 145 -102 45 -183 73 -273 92 -52
11 -118 29 -147 40 -30 11 -106 29 -171 41 -64 11 -124 24 -132 29 -8 4 -63
20 -121 34 -139 34 -235 35 -305 2z"/>
<path d="M11379 18134 c-193 -39 -481 -250 -563 -412 -31 -62 -93 -254 -119
-372 -29 -129 -30 -366 -3 -455 67 -220 275 -434 563 -578 123 -62 165 -72
303 -72 124 0 127 1 270 49 183 63 394 168 481 239 183 152 255 360 214 621
-31 199 -98 343 -236 510 -272 328 -648 522 -910 470z"/>
<path d="M21699 18134 c-193 -39 -481 -250 -563 -412 -31 -62 -93 -254 -119
-372 -29 -129 -30 -366 -3 -455 67 -220 275 -434 563 -578 123 -62 165 -72
303 -72 124 0 127 1 270 49 183 63 394 168 481 239 183 152 255 360 214 621
-31 199 -98 343 -236 510 -272 328 -648 522 -910 470z"/>
<path d="M32842 18139 c-133 -22 -333 -139 -468 -273 -92 -92 -125 -148 -174
-301 -116 -361 -112 -624 11 -832 100 -167 360 -371 582 -456 76 -29 91 -31
212 -32 128 0 132 1 255 44 285 100 429 178 545 295 125 126 175 250 175 432
0 112 -31 273 -71 369 -45 109 -139 246 -241 351 -231 239 -466 379 -673 399
-33 4 -69 8 -80 9 -11 2 -44 -1 -73 -5z"/>
</g>
</svg>
